# Blender 5.1.0
# www.blender.org
mtllib Frame.mtl
o Frame
v -0.585444 -0.585442 -0.164909
v -0.585444 0.585442 -0.164909
v 0.585441 -0.585442 -0.164909
v 0.585441 0.585442 -0.164909
v -0.602018 -0.816852 -0.164909
v -0.816852 -0.602018 -0.164909
v -0.684231 -0.800499 -0.164909
v -0.753929 -0.753929 -0.164909
v -0.800499 -0.684231 -0.164909
v -0.816852 0.602018 -0.164909
v -0.602018 0.816852 -0.164909
v -0.800499 0.684231 -0.164909
v -0.753929 0.753929 -0.164909
v -0.684231 0.800499 -0.164909
v 0.816852 -0.602018 -0.164909
v 0.602018 -0.816852 -0.164909
v 0.800499 -0.684231 -0.164909
v 0.753929 -0.753929 -0.164909
v 0.684231 -0.800499 -0.164909
v 0.602018 0.816852 -0.164909
v 0.816852 0.602018 -0.164909
v 0.684231 0.800499 -0.164909
v 0.753929 0.753929 -0.164909
v 0.800499 0.684231 -0.164909
v -0.816852 -0.602018 -0.000000
v -0.602018 -0.816852 -0.000000
v -0.800499 -0.684231 -0.000000
v -0.753929 -0.753929 -0.000000
v -0.684231 -0.800499 -0.000000
v -0.602018 0.816852 -0.000000
v -0.816852 0.602018 -0.000000
v -0.684231 0.800499 -0.000000
v -0.753929 0.753929 -0.000000
v -0.800499 0.684231 -0.000000
v 0.602018 -0.816852 0.000000
v 0.816852 -0.602018 0.000000
v 0.684231 -0.800499 0.000000
v 0.753929 -0.753929 0.000000
v 0.800499 -0.684231 0.000000
v 0.816852 0.602018 0.000000
v 0.602018 0.816852 0.000000
v 0.800499 0.684231 0.000000
v 0.753929 0.753929 0.000000
v 0.684231 0.800499 0.000000
vn -0.0000 -0.0000 1.0000
vn 0.1951 -0.9808 -0.0000
vn 0.5556 -0.8315 -0.0000
vn 0.8315 -0.5556 -0.0000
vn 0.9808 -0.1951 -0.0000
vn 0.1951 0.9808 -0.0000
vn 0.5556 0.8315 -0.0000
vn 0.8315 0.5556 -0.0000
vn 0.9808 0.1951 -0.0000
vn -0.1951 -0.9808 -0.0000
vn -0.5556 -0.8315 -0.0000
vn -0.8315 -0.5556 -0.0000
vn -0.9808 -0.1951 -0.0000
vn -0.1951 0.9808 -0.0000
vn -0.5556 0.8315 -0.0000
vn -0.8315 0.5556 -0.0000
vn -0.9808 0.1951 -0.0000
vn -0.0000 -1.0000 -0.0000
vn -0.0000 -0.0000 -1.0000
vn -1.0000 -0.0000 -0.0000
vn -0.0000 1.0000 -0.0000
vn 1.0000 -0.0000 -0.0000
vt 0.625000 0.500000
vt 0.375000 0.750000
vt 0.375000 0.500000
vt 0.125000 0.532875
vt 0.375834 0.520294
vt 0.375000 0.532875
vt 0.125000 0.520294
vt 0.378210 0.503210
vt 0.379814 0.245186
vt 0.395294 0.500834
vt 0.395294 0.249166
vt 0.407875 0.500000
vt 0.625000 0.532875
vt 0.875000 0.520294
vt 0.875000 0.532875
vt 0.624166 0.520294
vt 0.875000 0.500000
vt 0.621790 0.503210
vt 0.604706 0.249166
vt 0.620186 0.245186
vt 0.604706 0.500834
vt 0.592125 0.250000
vt 0.375000 0.717125
vt 0.125000 0.729706
vt 0.125000 0.717125
vt 0.375834 0.729706
vt 0.125000 0.750000
vt 0.378210 0.746790
vt 0.395294 1.000000
vt 0.375000 1.000000
vt 0.395294 0.749166
vt 0.407875 1.000000
vt 0.875000 0.717125
vt 0.624166 0.729706
vt 0.625000 0.717125
vt 0.875000 0.729706
vt 0.621790 0.746790
vt 0.625000 1.000000
vt 0.604706 0.749166
vt 0.604706 1.000000
vt 0.592125 0.750000
vt 0.615371 0.009629
vt 0.407875 0.250000
vt 0.375000 0.217125
vt 0.407875 0.750000
vt 0.625000 0.750000
vt 0.125000 0.500000
vt 0.592125 0.500000
vt 0.875000 0.750000
vt 0.592125 1.000000
vt 0.375000 0.032875
vt 0.377503 0.020294
vt 0.384629 0.009629
vt 0.395294 0.002502
vt 0.407875 0.000000
vt 0.592125 0.000000
vt 0.604706 0.002502
vt 0.622497 0.020294
vt 0.625000 0.032875
vt 0.625000 0.217125
vt 0.622497 0.229706
vt 0.377503 0.229706
s 0
f 4/1/1 1/2/1 3/3/1
f 16/4/2 37/5/2 35/6/2
f 19/7/3 38/8/3 37/5/3
f 18/9/4 39/10/4 38/8/4
f 17/11/5 36/12/5 39/10/5
f 41/13/6 22/14/6 20/15/6
f 44/16/7 23/17/7 22/14/7
f 43/18/8 24/19/8 23/20/8
f 42/21/9 21/22/9 24/19/9
f 26/23/10 7/24/10 5/25/10
f 29/26/11 8/27/11 7/24/11
f 28/28/12 9/29/12 8/30/12
f 27/31/13 6/32/13 9/29/13
f 11/33/14 32/34/14 30/35/14
f 14/36/15 33/37/15 32/34/15
f 13/38/16 34/39/16 33/37/16
f 12/40/17 31/41/17 34/39/17
f 35/6/18 5/25/18 16/4/18
f 13/42/19 15/43/19 16/44/19
f 31/41/20 6/32/20 25/45/20
f 20/15/21 30/35/21 41/13/21
f 21/22/22 36/12/22 15/43/22
f 43/18/1 25/45/1 26/23/1
f 4/1/1 2/46/1 1/2/1
f 16/4/2 19/7/2 37/5/2
f 19/7/3 18/47/3 38/8/3
f 18/9/4 17/11/4 39/10/4
f 17/11/5 15/43/5 36/12/5
f 41/13/6 44/16/6 22/14/6
f 44/16/7 43/18/7 23/17/7
f 43/18/8 42/21/8 24/19/8
f 42/21/9 40/48/9 21/22/9
f 26/23/10 29/26/10 7/24/10
f 29/26/11 28/28/11 8/27/11
f 28/28/12 27/31/12 9/29/12
f 27/31/13 25/45/13 6/32/13
f 11/33/14 14/36/14 32/34/14
f 14/36/15 13/49/15 33/37/15
f 13/38/16 12/40/16 34/39/16
f 12/40/17 10/50/17 31/41/17
f 35/6/18 26/23/18 5/25/18
f 16/44/19 5/51/19 7/52/19
f 7/52/19 8/53/19 9/54/19
f 9/54/19 6/55/19 10/56/19
f 10/56/19 12/57/19 13/42/19
f 13/42/19 14/58/19 11/59/19
f 11/59/19 20/60/19 22/61/19
f 22/61/19 23/20/19 24/19/19
f 24/19/19 21/22/19 15/43/19
f 15/43/19 17/11/19 18/9/19
f 18/9/19 19/62/19 16/44/19
f 16/44/19 7/52/19 9/54/19
f 9/54/19 10/56/19 13/42/19
f 13/42/19 11/59/19 22/61/19
f 22/61/19 24/19/19 15/43/19
f 15/43/19 18/9/19 16/44/19
f 16/44/19 9/54/19 13/42/19
f 13/42/19 22/61/19 15/43/19
f 31/41/20 10/50/20 6/32/20
f 20/15/21 11/33/21 30/35/21
f 21/22/22 40/48/22 36/12/22
f 26/23/1 35/6/1 37/5/1
f 37/5/1 38/8/1 39/10/1
f 39/10/1 36/12/1 40/48/1
f 40/48/1 42/21/1 43/18/1
f 43/18/1 44/16/1 41/13/1
f 41/13/1 30/35/1 32/34/1
f 32/34/1 33/37/1 34/39/1
f 34/39/1 31/41/1 25/45/1
f 25/45/1 27/31/1 28/28/1
f 28/28/1 29/26/1 26/23/1
f 26/23/1 37/5/1 39/10/1
f 39/10/1 40/48/1 43/18/1
f 43/18/1 41/13/1 32/34/1
f 32/34/1 34/39/1 25/45/1
f 25/45/1 28/28/1 26/23/1
f 26/23/1 39/10/1 43/18/1
f 43/18/1 32/34/1 25/45/1
