# Blender 5.0.1
# www.blender.org
mtllib kitty_head.mtl
o Head
v 0.202831 0.564347 -0.361516
v 0.202831 0.723032 -0.202831
v 0.361516 0.564347 -0.202831
v 0.202831 -0.000000 -0.202831
v 0.202831 0.158685 -0.361516
v 0.361516 0.158685 -0.202831
v 0.202831 0.564347 0.361516
v 0.202831 0.723032 0.202831
v 0.361516 0.564347 0.202831
v 0.202831 0.000000 0.202831
v 0.202831 0.158685 0.361516
v 0.361516 0.158685 0.202831
v -0.202831 0.564347 -0.361516
v -0.361516 0.564347 -0.202831
v -0.202831 0.723032 -0.202831
v -0.361516 0.158685 -0.202831
v -0.202831 0.158685 -0.361516
v -0.202831 -0.000000 -0.202831
v -0.202831 0.564347 0.361516
v -0.361516 0.564347 0.202831
v -0.202831 0.723032 0.202831
v -0.361516 0.158685 0.202831
v -0.202831 0.158685 0.361516
v -0.202831 0.000000 0.202831
v 0.067610 -0.000000 -0.202831
v -0.067610 -0.000000 -0.202831
v -0.067610 0.158685 -0.361516
v 0.067610 0.158685 -0.361516
v 0.067610 0.000000 0.202831
v -0.067610 0.000000 0.202831
v -0.067610 0.158685 0.361516
v 0.067610 0.158685 0.361516
v -0.067610 0.723032 0.202831
v 0.067610 0.723032 0.202831
v 0.067610 0.564347 0.361516
v -0.067610 0.564347 0.361516
v -0.067610 0.723032 -0.202831
v 0.067610 0.723032 -0.202831
v 0.067610 0.564347 -0.361516
v -0.067610 0.564347 -0.361516
v -0.018426 0.798536 -0.421792
v -0.202831 0.000000 0.000000
v -0.361516 0.158685 -0.000000
v 0.202831 0.723032 -0.000000
v 0.361516 0.564347 -0.000000
v -0.202831 0.723032 -0.000000
v -0.361516 0.564347 -0.000000
v 0.202831 0.000000 0.000000
v 0.361516 0.158685 -0.000000
v 0.067610 0.723032 -0.000000
v -0.067610 0.723032 -0.000000
v -0.018426 0.798536 0.421792
v 0.067610 0.288096 -0.361516
v -0.067610 0.288096 -0.361516
v -0.067610 0.288096 0.361516
v 0.067610 0.288096 0.361516
v -0.361516 0.288096 -0.202831
v -0.202831 0.288096 -0.361516
v -0.361516 0.288096 0.202831
v 0.202831 0.288096 -0.361516
v 0.361516 0.288096 -0.202831
v -0.202831 0.288096 0.361516
v 0.361516 0.288096 0.202831
v 0.202831 0.288096 0.361516
v 0.361516 0.288096 -0.000000
v -0.361516 0.288096 -0.000000
v -0.361516 0.158685 -0.101416
v 0.361516 0.564347 -0.101416
v -0.202831 0.723032 -0.101416
v -0.361516 0.288096 -0.101416
v 0.202831 -0.000000 -0.101416
v -0.202831 -0.000000 -0.101416
v 0.202831 0.723032 -0.101416
v -0.361516 0.564347 -0.101416
v 0.361516 0.158685 -0.101416
v 0.067610 0.723032 -0.101416
v -0.067610 0.723032 -0.101416
v 0.361516 0.288096 -0.101416
v 0.361516 0.288096 0.101416
v 0.202831 0.000000 0.101416
v 0.361516 0.564347 0.101416
v 0.361516 0.158685 0.101416
v -0.361516 0.158685 0.101416
v -0.361516 0.564347 0.101416
v 0.202831 0.723032 0.101416
v -0.202831 0.000000 0.101416
v -0.202831 0.723032 0.101416
v 0.067610 0.723032 0.101416
v -0.067610 0.723032 0.101416
v -0.361516 0.288096 0.101416
vn 0.5774 0.5774 -0.5774
vn 0.5774 -0.5774 -0.5774
vn 0.5774 -0.5774 0.5774
vn -0.0000 -0.7071 0.7071
vn -0.5774 0.5774 -0.5774
vn -0.5774 -0.5774 -0.5774
vn -0.7071 -0.0000 0.7071
vn -0.0000 -0.0000 1.0000
vn -1.0000 -0.0000 -0.0000
vn -0.0000 -0.7071 -0.7071
vn 0.7071 -0.0000 -0.7071
vn 0.7071 -0.7071 -0.0000
vn -0.5774 -0.5774 0.5774
vn -0.7071 -0.0000 -0.7071
vn 0.5774 0.5774 0.5774
vn -0.0000 1.0000 -0.0000
vn -0.7071 0.7071 -0.0000
vn -0.0000 0.7071 -0.7071
vn -0.0000 -0.0000 -1.0000
vn -0.5774 0.5774 0.5774
vn -0.0000 0.7071 0.7071
vn -0.9732 0.1626 0.1626
vn 1.0000 -0.0000 -0.0000
vn 0.9242 0.2700 0.2700
vn -0.0000 -0.2493 0.9684
vn 0.7071 0.7071 -0.0000
vn -0.0000 0.9454 -0.3260
vn -0.0000 0.9454 0.3260
vn 0.9242 0.2700 -0.2700
vn -0.0000 -0.2493 -0.9684
vn -0.9732 0.1626 -0.1626
vn 0.7071 -0.0000 0.7071
vn -0.7071 -0.7071 -0.0000
vn -0.0000 -1.0000 -0.0000
vt 0.663395 0.666119
vt 0.606321 0.746907
vt 0.567411 0.663522
vt 0.560462 0.413242
vt 0.641250 0.470316
vt 0.557865 0.509226
vt 0.626486 0.339781
vt 0.564256 0.273029
vt 0.562991 0.319767
vt 0.817320 0.670284
vt 0.913304 0.672881
vt 0.875254 0.726740
vt 0.565740 0.218181
vt 0.619104 0.274514
vt 0.915887 0.577398
vt 0.807402 0.529700
vt 0.810566 0.574548
vt 0.648315 0.532780
vt 0.714703 0.667507
vt 0.702398 0.546702
vt 0.948357 0.673830
vt 0.950941 0.578347
vt 0.560910 0.558448
vt 0.522811 0.508277
vt 0.525409 0.412294
vt 0.561727 0.366504
vt 0.479855 0.799404
vt 0.522537 0.856479
vt 0.533190 0.800847
vt 0.919449 0.727936
vt 0.695966 0.740184
vt 0.785610 0.733463
vt 0.766012 0.668896
vt 0.740573 0.702513
vt 0.486429 0.556433
vt 0.525503 0.662388
vt 0.523670 0.557441
vt 0.756482 0.560625
vt 0.481367 0.743525
vt 0.543844 0.745216
vt 0.478343 0.855283
vt 0.511884 0.912111
vt 0.633867 0.405049
vt 0.494150 0.271132
vt 0.530687 0.217233
vt 0.529203 0.272081
vt 0.696633 0.490111
vt 0.752018 0.509906
vt 0.917098 0.532669
vt 0.952151 0.533617
vt 0.985994 0.579296
vt 0.987195 0.534473
vt 0.586527 0.802290
vt 0.546937 0.913059
vt 0.566731 0.857675
vt 0.983410 0.674779
vt 0.487758 0.507329
vt 0.490356 0.411345
vt 0.963644 0.729132
vt 0.483593 0.661254
vt 0.476830 0.911162
vt 0.495634 0.216284
s 1
usemtl Material.004
f 1/1/1 2/2/1 3/3/1
f 4/4/2 5/5/2 6/6/2
f 10/4/3 12/6/3 11/5/3
f 31/7/4 24/8/4 30/9/4
f 13/10/5 14/11/5 15/12/5
f 16/13/6 17/14/6 18/8/6
f 59/15/7 23/16/7 62/17/7
f 64/18/8 35/19/8 56/20/8
f 59/15/9 84/21/9 90/22/9
f 18/8/10 27/7/10 26/9/10
f 6/6/11 60/18/11 61/23/11
f 82/24/12 10/4/12 80/25/12
f 22/13/13 24/8/13 23/14/13
f 17/16/14 57/15/14 58/17/14
f 11/5/4 29/26/4 10/4/4
f 7/1/15 9/3/15 8/2/15
f 50/27/16 89/28/16 88/29/16
f 15/12/17 74/21/17 69/30/17
f 2/2/18 39/19/18 38/31/18
f 4/4/12 75/24/12 71/25/12
f 39/19/19 60/18/19 53/20/19
f 19/10/20 21/12/20 20/11/20
f 19/10/21 33/32/21 21/12/21
f 36/33/22 52/34/22 33/32/22
f 65/35/23 81/36/23 79/37/23
f 74/21/9 57/15/9 70/22/9
f 34/31/24 52/34/24 35/19/24
f 35/19/25 52/34/25 36/33/25
f 55/38/8 19/10/8 62/17/8
f 56/20/8 36/33/8 55/38/8
f 13/10/19 54/38/19 58/17/19
f 40/33/19 53/20/19 54/38/19
f 37/32/18 13/10/18 15/12/18
f 81/36/26 44/39/26 85/40/26
f 51/41/16 87/42/16 89/28/16
f 33/32/27 52/34/27 34/31/27
f 32/43/4 30/9/4 29/26/4
f 25/26/10 5/5/10 4/4/10
f 26/9/10 28/43/10 25/26/10
f 37/32/28 38/31/28 41/34/28
f 38/31/29 39/19/29 41/34/29
f 39/19/30 40/33/30 41/34/30
f 40/33/31 37/32/31 41/34/31
f 77/28/16 50/27/16 76/29/16
f 64/18/32 12/6/32 63/23/32
f 84/21/17 21/12/17 87/30/17
f 69/42/16 51/41/16 77/28/16
f 68/36/23 65/35/23 78/37/23
f 44/39/26 68/36/26 73/40/26
f 76/29/16 44/39/16 73/40/16
f 35/19/21 8/2/21 34/31/21
f 42/44/33 67/45/33 72/46/33
f 44/39/16 88/29/16 85/40/16
f 83/45/33 42/44/33 86/46/33
f 7/1/32 63/23/32 9/3/32
f 54/38/19 28/47/19 27/48/19
f 58/17/19 27/48/19 17/16/19
f 32/47/8 55/38/8 31/48/8
f 31/48/8 62/17/8 23/16/8
f 70/22/9 16/49/9 67/50/9
f 53/20/19 5/5/19 28/47/19
f 58/17/14 14/11/14 13/10/14
f 61/23/11 1/1/11 3/3/11
f 22/49/9 90/22/9 83/50/9
f 11/5/8 56/20/8 32/47/8
f 20/11/7 62/17/7 19/10/7
f 66/51/9 67/50/9 43/52/9
f 61/23/23 75/24/23 6/6/23
f 72/46/33 16/13/33 18/8/33
f 38/53/16 73/40/16 2/2/16
f 73/40/26 3/3/26 2/2/26
f 3/3/23 78/37/23 61/23/23
f 15/54/16 77/28/16 37/55/16
f 37/55/16 76/29/16 38/53/16
f 47/56/9 70/22/9 66/51/9
f 71/25/12 49/57/12 48/58/12
f 69/30/17 47/56/17 46/59/17
f 83/50/9 66/51/9 43/52/9
f 82/24/23 63/23/23 12/6/23
f 22/13/33 86/46/33 24/8/33
f 85/40/16 34/53/16 8/2/16
f 47/56/17 87/30/17 46/59/17
f 89/28/16 21/54/16 33/55/16
f 9/3/26 85/40/26 8/2/26
f 79/37/23 9/3/23 63/23/23
f 88/29/16 33/55/16 34/53/16
f 49/57/12 80/25/12 48/58/12
f 90/22/9 47/56/9 66/51/9
f 26/9/34 71/25/34 29/26/34
f 49/57/23 65/35/23 82/24/23
f 31/7/4 23/14/4 24/8/4
f 59/15/7 22/49/7 23/16/7
f 64/18/8 7/1/8 35/19/8
f 59/15/9 20/11/9 84/21/9
f 18/8/10 17/14/10 27/7/10
f 6/6/11 5/5/11 60/18/11
f 82/24/12 12/6/12 10/4/12
f 17/16/14 16/49/14 57/15/14
f 11/5/4 32/43/4 29/26/4
f 50/27/16 51/41/16 89/28/16
f 15/12/17 14/11/17 74/21/17
f 2/2/18 1/1/18 39/19/18
f 4/4/12 6/6/12 75/24/12
f 39/19/19 1/1/19 60/18/19
f 19/10/21 36/33/21 33/32/21
f 65/35/23 45/60/23 81/36/23
f 74/21/9 14/11/9 57/15/9
f 55/38/8 36/33/8 19/10/8
f 56/20/8 35/19/8 36/33/8
f 13/10/19 40/33/19 54/38/19
f 40/33/19 39/19/19 53/20/19
f 37/32/18 40/33/18 13/10/18
f 81/36/26 45/60/26 44/39/26
f 51/41/16 46/61/16 87/42/16
f 32/43/4 31/7/4 30/9/4
f 25/26/10 28/43/10 5/5/10
f 26/9/10 27/7/10 28/43/10
f 77/28/16 51/41/16 50/27/16
f 64/18/32 11/5/32 12/6/32
f 84/21/17 20/11/17 21/12/17
f 69/42/16 46/61/16 51/41/16
f 68/36/23 45/60/23 65/35/23
f 44/39/26 45/60/26 68/36/26
f 76/29/16 50/27/16 44/39/16
f 35/19/21 7/1/21 8/2/21
f 42/44/33 43/62/33 67/45/33
f 44/39/16 50/27/16 88/29/16
f 83/45/33 43/62/33 42/44/33
f 7/1/32 64/18/32 63/23/32
f 54/38/19 53/20/19 28/47/19
f 58/17/19 54/38/19 27/48/19
f 32/47/8 56/20/8 55/38/8
f 31/48/8 55/38/8 62/17/8
f 70/22/9 57/15/9 16/49/9
f 53/20/19 60/18/19 5/5/19
f 58/17/14 57/15/14 14/11/14
f 61/23/11 60/18/11 1/1/11
f 22/49/9 59/15/9 90/22/9
f 11/5/8 64/18/8 56/20/8
f 20/11/7 59/15/7 62/17/7
f 66/51/9 70/22/9 67/50/9
f 61/23/23 78/37/23 75/24/23
f 72/46/33 67/45/33 16/13/33
f 38/53/16 76/29/16 73/40/16
f 73/40/26 68/36/26 3/3/26
f 3/3/23 68/36/23 78/37/23
f 15/54/16 69/42/16 77/28/16
f 37/55/16 77/28/16 76/29/16
f 47/56/9 74/21/9 70/22/9
f 71/25/12 75/24/12 49/57/12
f 69/30/17 74/21/17 47/56/17
f 83/50/9 90/22/9 66/51/9
f 82/24/23 79/37/23 63/23/23
f 22/13/33 83/45/33 86/46/33
f 85/40/16 88/29/16 34/53/16
f 47/56/17 84/21/17 87/30/17
f 89/28/16 87/42/16 21/54/16
f 9/3/26 81/36/26 85/40/26
f 79/37/23 81/36/23 9/3/23
f 88/29/16 89/28/16 33/55/16
f 49/57/12 82/24/12 80/25/12
f 90/22/9 84/21/9 47/56/9
f 30/9/34 24/8/34 86/46/34
f 30/9/34 86/46/34 42/44/34
f 80/25/34 10/4/34 29/26/34
f 29/26/34 30/9/34 42/44/34
f 72/46/34 18/8/34 26/9/34
f 29/26/34 42/44/34 72/46/34
f 48/58/34 80/25/34 29/26/34
f 25/26/34 4/4/34 71/25/34
f 71/25/34 48/58/34 29/26/34
f 29/26/34 72/46/34 26/9/34
f 26/9/34 25/26/34 71/25/34
f 49/57/23 75/24/23 78/37/23
f 65/35/23 79/37/23 82/24/23
f 49/57/23 78/37/23 65/35/23
