# Blender 5.0.1
# www.blender.org
mtllib kitty_nose.mtl
o Nose
v 0.361516 -0.064706 0.000000
v 0.361516 0.064706 -0.000000
v 0.361516 -0.064706 -0.101416
v 0.361516 0.064706 -0.101416
v 0.361516 0.064706 0.101416
v 0.361516 -0.064706 0.101416
v 0.425324 -0.064706 -0.101416
v 0.425324 -0.064706 0.000000
v 0.425324 0.064706 -0.000000
v 0.425324 0.064706 -0.101416
v 0.425324 -0.064706 0.101416
v 0.425324 0.064706 0.101416
vn -0.0000 -1.0000 -0.0000
vn -0.0000 -0.0000 1.0000
vn -0.0000 1.0000 -0.0000
vn -0.0000 -0.0000 -1.0000
vn 1.0000 -0.0000 -0.0000
vn -1.0000 -0.0000 -0.0000
vt 0.416151 0.625000
vt 0.416151 0.589934
vt 0.465273 0.587746
vt 0.465273 0.625000
s 1
usemtl Material.005
f 1/1/1 11/2/1 6/2/1
f 6/2/2 12/3/2 5/3/2
f 5/3/3 9/4/3 2/4/3
f 3/2/1 8/1/1 1/1/1
f 4/3/4 7/2/4 3/2/4
f 2/4/3 10/3/3 4/3/3
f 9/4/5 11/2/5 8/1/5
f 1/1/6 2/4/6 3/2/6
f 1/1/1 8/1/1 11/2/1
f 6/2/2 11/2/2 12/3/2
f 5/3/3 12/3/3 9/4/3
f 3/2/1 7/2/1 8/1/1
f 4/3/4 10/3/4 7/2/4
f 2/4/3 9/4/3 10/3/3
f 8/1/5 7/2/5 10/3/5
f 9/4/5 12/3/5 11/2/5
f 8/1/5 10/3/5 9/4/5
f 1/1/6 6/2/6 5/3/6
f 2/4/6 4/3/6 3/2/6
f 1/1/6 5/3/6 2/4/6
