# Blender 5.0.1
# www.blender.org
mtllib shade_top.mtl
o Cone
v 0.000000 -0.170499 -0.413333
v 0.080637 -0.170499 -0.405391
v 0.158176 -0.170499 -0.381870
v 0.229635 -0.170499 -0.343674
v 0.292270 -0.170499 -0.292270
v 0.343674 -0.170499 -0.229635
v 0.381870 -0.170499 -0.158176
v 0.405391 -0.170499 -0.080637
v 0.413333 -0.170499 0.000000
v 0.405391 -0.170499 0.080637
v 0.381870 -0.170499 0.158176
v 0.343674 -0.170499 0.229635
v 0.292270 -0.170499 0.292270
v 0.229635 -0.170499 0.343674
v 0.158176 -0.170499 0.381870
v 0.080637 -0.170499 0.405391
v 0.000000 -0.170499 0.413333
v -0.080637 -0.170499 0.405391
v -0.158176 -0.170499 0.381870
v -0.229635 -0.170499 0.343674
v -0.292270 -0.170499 0.292270
v -0.343674 -0.170499 0.229635
v -0.381870 -0.170499 0.158176
v -0.405391 -0.170499 0.080637
v -0.413333 -0.170499 0.000000
v -0.405391 -0.170499 -0.080637
v -0.381870 -0.170499 -0.158176
v -0.343674 -0.170499 -0.229635
v -0.292270 -0.170499 -0.292270
v -0.229635 -0.170499 -0.343674
v -0.158176 -0.170499 -0.381870
v -0.080637 -0.170499 -0.405391
v 0.000000 0.000000 0.000000
v 0.000000 -0.179265 -0.455454
v 0.088855 -0.179265 -0.446703
v 0.174295 -0.179265 -0.420785
v 0.253037 -0.179265 -0.378696
v 0.322055 -0.179265 -0.322055
v 0.378696 -0.179265 -0.253037
v 0.420785 -0.179265 -0.174295
v 0.446703 -0.179265 -0.088855
v 0.455454 -0.179265 0.000000
v 0.446703 -0.179265 0.088855
v 0.420785 -0.179265 0.174295
v 0.378696 -0.179265 0.253037
v 0.322055 -0.179265 0.322055
v 0.253037 -0.179265 0.378696
v 0.174295 -0.179265 0.420785
v 0.088855 -0.179265 0.446703
v 0.000000 -0.179265 0.455454
v -0.088855 -0.179265 0.446703
v -0.174295 -0.179265 0.420785
v -0.253037 -0.179265 0.378696
v -0.322055 -0.179265 0.322055
v -0.378696 -0.179265 0.253037
v -0.420785 -0.179265 0.174295
v -0.446703 -0.179265 0.088855
v -0.455454 -0.179265 0.000000
v -0.446703 -0.179265 -0.088855
v -0.420785 -0.179265 -0.174295
v -0.378696 -0.179265 -0.253037
v -0.322055 -0.179265 -0.322055
v -0.253037 -0.179265 -0.378696
v -0.174295 -0.179265 -0.420785
v -0.088855 -0.179265 -0.446703
v -0.000000 -0.226940 -0.413333
v 0.080637 -0.226940 -0.405391
v 0.158176 -0.226940 -0.381870
v 0.229635 -0.226940 -0.343674
v 0.292270 -0.226940 -0.292270
v 0.343674 -0.226940 -0.229635
v 0.381870 -0.226940 -0.158176
v 0.405391 -0.226940 -0.080637
v 0.413333 -0.226940 0.000000
v 0.405391 -0.226940 0.080637
v 0.381870 -0.226940 0.158176
v 0.343674 -0.226940 0.229635
v 0.292270 -0.226940 0.292270
v 0.229635 -0.226940 0.343674
v 0.158176 -0.226940 0.381870
v 0.080637 -0.226940 0.405391
v -0.000000 -0.226940 0.413333
v -0.080637 -0.226940 0.405391
v -0.158176 -0.226940 0.381870
v -0.229635 -0.226940 0.343674
v -0.292270 -0.226940 0.292270
v -0.343674 -0.226940 0.229635
v -0.381870 -0.226940 0.158176
v -0.405391 -0.226940 0.080637
v -0.413333 -0.226940 0.000000
v -0.405391 -0.226940 -0.080637
v -0.381870 -0.226940 -0.158176
v -0.343674 -0.226940 -0.229635
v -0.292270 -0.226940 -0.292270
v -0.229635 -0.226940 -0.343674
v -0.158176 -0.226940 -0.381870
v -0.080637 -0.226940 -0.405391
vn 0.0360 0.9299 -0.3660
vn 0.1068 0.9299 -0.3519
vn 0.1734 0.9299 -0.3244
vn 0.2333 0.9299 -0.2843
vn 0.2843 0.9299 -0.2333
vn 0.3244 0.9299 -0.1734
vn 0.3519 0.9299 -0.1068
vn 0.3660 0.9299 -0.0360
vn 0.3660 0.9299 0.0360
vn 0.3519 0.9299 0.1068
vn 0.3244 0.9299 0.1734
vn 0.2843 0.9299 0.2333
vn 0.2333 0.9299 0.2843
vn 0.1734 0.9299 0.3244
vn 0.1068 0.9299 0.3519
vn 0.0360 0.9299 0.3660
vn -0.0360 0.9299 0.3660
vn -0.1068 0.9299 0.3519
vn -0.1734 0.9299 0.3244
vn -0.2333 0.9299 0.2843
vn -0.2843 0.9299 0.2333
vn -0.3244 0.9299 0.1734
vn -0.3519 0.9299 0.1068
vn -0.3660 0.9299 0.0360
vn -0.3660 0.9299 -0.0360
vn -0.3519 0.9299 -0.1068
vn -0.3244 0.9299 -0.1734
vn -0.2843 0.9299 -0.2333
vn -0.2333 0.9299 -0.2843
vn -0.1734 0.9299 -0.3244
vn 0.6344 -0.0000 0.7730
vn -0.1068 0.9299 -0.3519
vn -0.0360 0.9299 -0.3660
vn -0.0201 -0.9788 0.2037
vn -0.0594 -0.9788 0.1959
vn -0.0965 -0.9788 0.1805
vn -0.1299 -0.9788 0.1582
vn -0.1582 -0.9788 0.1299
vn -0.1805 -0.9788 0.0965
vn -0.1959 -0.9788 0.0594
vn -0.2037 -0.9788 0.0201
vn -0.2037 -0.9788 -0.0201
vn -0.1959 -0.9788 -0.0594
vn -0.1805 -0.9788 -0.0965
vn -0.1582 -0.9788 -0.1299
vn -0.1299 -0.9788 -0.1582
vn -0.0965 -0.9788 -0.1805
vn -0.0594 -0.9788 -0.1959
vn -0.0201 -0.9788 -0.2037
vn 0.0201 -0.9788 -0.2037
vn 0.0594 -0.9788 -0.1959
vn 0.0965 -0.9788 -0.1805
vn 0.1299 -0.9788 -0.1582
vn 0.1582 -0.9788 -0.1299
vn 0.1805 -0.9788 -0.0965
vn 0.1959 -0.9788 -0.0594
vn 0.2037 -0.9788 -0.0201
vn 0.2037 -0.9788 0.0201
vn 0.1959 -0.9788 0.0594
vn 0.1805 -0.9788 0.0965
vn 0.1582 -0.9788 0.1299
vn 0.1299 -0.9788 0.1582
vn 0.0965 -0.9788 0.1805
vn 0.0594 -0.9788 0.1959
vn 0.0201 -0.9788 0.2037
vn -0.8819 -0.0000 -0.4714
vn 0.4714 -0.0000 0.8819
vn 0.0980 -0.0000 -0.9952
vn -0.7730 -0.0000 -0.6344
vn 0.2903 -0.0000 0.9569
vn 0.2903 -0.0000 -0.9569
vn -0.6344 -0.0000 -0.7730
vn 0.0980 -0.0000 0.9952
vn 0.4714 -0.0000 -0.8819
vn -0.4714 -0.0000 -0.8819
vn -0.0980 -0.0000 0.9952
vn 0.6344 -0.0000 -0.7730
vn -0.2903 -0.0000 -0.9569
vn -0.2903 -0.0000 0.9569
vn 0.7730 -0.0000 -0.6344
vn -0.0980 -0.0000 -0.9952
vn -0.4714 -0.0000 0.8819
vn 0.8819 -0.0000 -0.4714
vn -0.6344 -0.0000 0.7730
vn 0.9569 -0.0000 -0.2903
vn -0.7730 -0.0000 0.6344
vn 0.9952 -0.0000 -0.0980
vn -0.8819 -0.0000 0.4714
vn 0.9952 -0.0000 0.0980
vn -0.9569 -0.0000 0.2903
vn 0.9569 -0.0000 0.2903
vn -0.9952 -0.0000 0.0980
vn 0.8819 -0.0000 0.4714
vn -0.9952 -0.0000 -0.0980
vn 0.7730 -0.0000 0.6344
vn -0.9569 -0.0000 -0.2903
vt 0.250000 0.490000
vt 0.250000 0.250000
vt 0.296822 0.485388
vt 0.341844 0.471731
vt 0.383337 0.449553
vt 0.419706 0.419706
vt 0.449553 0.383337
vt 0.471731 0.341844
vt 0.485388 0.296822
vt 0.490000 0.250000
vt 0.485388 0.203178
vt 0.471731 0.158156
vt 0.449553 0.116663
vt 0.419706 0.080294
vt 0.383337 0.050447
vt 0.341844 0.028269
vt 0.296822 0.014612
vt 0.250000 0.010000
vt 0.203178 0.014612
vt 0.158156 0.028269
vt 0.116663 0.050447
vt 0.080294 0.080294
vt 0.050447 0.116663
vt 0.028269 0.158156
vt 0.014612 0.203178
vt 0.010000 0.250000
vt 0.014612 0.296822
vt 0.028269 0.341844
vt 0.050447 0.383337
vt 0.080294 0.419706
vt 0.116663 0.449553
vt 0.158156 0.471731
vt 0.871006 0.068902
vt 0.904011 0.095989
vt 0.203178 0.485388
vt 0.750000 0.467804
vt 0.796822 0.485388
vt 0.792492 0.463619
vt 0.841844 0.471731
vt 0.833350 0.451225
vt 0.883337 0.449553
vt 0.871006 0.431098
vt 0.919706 0.419706
vt 0.904011 0.404011
vt 0.931098 0.371006
vt 0.949553 0.383337
vt 0.951225 0.333350
vt 0.971731 0.341844
vt 0.985388 0.296822
vt 0.963619 0.292492
vt 0.990000 0.250000
vt 0.967804 0.250000
vt 0.985388 0.203178
vt 0.963619 0.207509
vt 0.971731 0.158156
vt 0.951225 0.166650
vt 0.949553 0.116663
vt 0.931098 0.128994
vt 0.919706 0.080294
vt 0.883337 0.050447
vt 0.833350 0.048775
vt 0.841844 0.028269
vt 0.796822 0.014612
vt 0.792492 0.036381
vt 0.750000 0.010000
vt 0.750000 0.032196
vt 0.703178 0.014612
vt 0.707509 0.036381
vt 0.658156 0.028269
vt 0.666650 0.048775
vt 0.616663 0.050447
vt 0.628995 0.068902
vt 0.580294 0.080294
vt 0.595989 0.095989
vt 0.568902 0.128994
vt 0.550447 0.116663
vt 0.548775 0.166650
vt 0.528269 0.158156
vt 0.514612 0.203178
vt 0.536381 0.207509
vt 0.510000 0.250000
vt 0.532196 0.250000
vt 0.514612 0.296822
vt 0.536381 0.292491
vt 0.528269 0.341844
vt 0.548775 0.333350
vt 0.550447 0.383337
vt 0.568902 0.371006
vt 0.580294 0.419706
vt 0.595989 0.404011
vt 0.628994 0.431098
vt 0.616663 0.449553
vt 0.666650 0.451225
vt 0.658156 0.471731
vt 0.703178 0.485388
vt 0.707509 0.463619
vt 0.750000 0.490000
s 0
f 34/1/1 33/2/1 35/3/1
f 35/3/2 33/2/2 36/4/2
f 36/4/3 33/2/3 37/5/3
f 37/5/4 33/2/4 38/6/4
f 38/6/5 33/2/5 39/7/5
f 39/7/6 33/2/6 40/8/6
f 40/8/7 33/2/7 41/9/7
f 41/9/8 33/2/8 42/10/8
f 42/10/9 33/2/9 43/11/9
f 43/11/10 33/2/10 44/12/10
f 44/12/11 33/2/11 45/13/11
f 45/13/12 33/2/12 46/14/12
f 46/14/13 33/2/13 47/15/13
f 47/15/14 33/2/14 48/16/14
f 48/16/15 33/2/15 49/17/15
f 49/17/16 33/2/16 50/18/16
f 50/18/17 33/2/17 51/19/17
f 51/19/18 33/2/18 52/20/18
f 52/20/19 33/2/19 53/21/19
f 53/21/20 33/2/20 54/22/20
f 54/22/21 33/2/21 55/23/21
f 55/23/22 33/2/22 56/24/22
f 56/24/23 33/2/23 57/25/23
f 57/25/24 33/2/24 58/26/24
f 58/26/25 33/2/25 59/27/25
f 59/27/26 33/2/26 60/28/26
f 60/28/27 33/2/27 61/29/27
f 61/29/28 33/2/28 62/30/28
f 62/30/29 33/2/29 63/31/29
f 63/31/30 33/2/30 64/32/30
f 14/33/31 78/34/31 13/34/31
f 64/32/32 33/2/32 65/35/32
f 65/35/33 33/2/33 34/1/33
f 1/36/34 35/37/34 2/38/34
f 2/38/35 36/39/35 3/40/35
f 3/40/36 37/41/36 4/42/36
f 4/42/37 38/43/37 5/44/37
f 6/45/38 38/43/38 39/46/38
f 7/47/39 39/46/39 40/48/39
f 7/47/40 41/49/40 8/50/40
f 8/50/41 42/51/41 9/52/41
f 9/52/42 43/53/42 10/54/42
f 10/54/43 44/55/43 11/56/43
f 11/56/44 45/57/44 12/58/44
f 12/58/45 46/59/45 13/34/45
f 14/33/46 46/59/46 47/60/46
f 15/61/47 47/60/47 48/62/47
f 15/61/48 49/63/48 16/64/48
f 16/64/49 50/65/49 17/66/49
f 17/66/50 51/67/50 18/68/50
f 18/68/51 52/69/51 19/70/51
f 19/70/52 53/71/52 20/72/52
f 20/72/53 54/73/53 21/74/53
f 22/75/54 54/73/54 55/76/54
f 23/77/55 55/76/55 56/78/55
f 23/77/56 57/79/56 24/80/56
f 24/80/57 58/81/57 25/82/57
f 25/82/58 59/83/58 26/84/58
f 26/84/59 60/85/59 27/86/59
f 27/86/60 61/87/60 28/88/60
f 28/88/61 62/89/61 29/90/61
f 30/91/62 62/89/62 63/92/62
f 31/93/63 63/92/63 64/94/63
f 31/93/64 65/95/64 32/96/64
f 32/96/65 34/97/65 1/36/65
f 28/88/66 92/86/66 27/86/66
f 15/61/67 79/33/67 14/33/67
f 2/38/68 66/36/68 1/36/68
f 29/90/69 93/88/69 28/88/69
f 16/64/70 80/61/70 15/61/70
f 3/40/71 67/38/71 2/38/71
f 30/91/72 94/90/72 29/90/72
f 17/66/73 81/64/73 16/64/73
f 4/42/74 68/40/74 3/40/74
f 31/93/75 95/91/75 30/91/75
f 18/68/76 82/66/76 17/66/76
f 5/44/77 69/42/77 4/42/77
f 32/96/78 96/93/78 31/93/78
f 19/70/79 83/68/79 18/68/79
f 6/45/80 70/44/80 5/44/80
f 1/36/81 97/96/81 32/96/81
f 20/72/82 84/70/82 19/70/82
f 7/47/83 71/45/83 6/45/83
f 21/74/84 85/72/84 20/72/84
f 8/50/85 72/47/85 7/47/85
f 22/75/86 86/74/86 21/74/86
f 9/52/87 73/50/87 8/50/87
f 23/77/88 87/75/88 22/75/88
f 10/54/89 74/52/89 9/52/89
f 24/80/90 88/77/90 23/77/90
f 11/56/91 75/54/91 10/54/91
f 25/82/92 89/80/92 24/80/92
f 12/58/93 76/56/93 11/56/93
f 26/84/94 90/82/94 25/82/94
f 13/34/95 77/58/95 12/58/95
f 27/86/96 91/84/96 26/84/96
f 14/33/31 79/33/31 78/34/31
f 1/36/34 34/97/34 35/37/34
f 2/38/35 35/37/35 36/39/35
f 3/40/36 36/39/36 37/41/36
f 4/42/37 37/41/37 38/43/37
f 6/45/38 5/44/38 38/43/38
f 7/47/39 6/45/39 39/46/39
f 7/47/40 40/48/40 41/49/40
f 8/50/41 41/49/41 42/51/41
f 9/52/42 42/51/42 43/53/42
f 10/54/43 43/53/43 44/55/43
f 11/56/44 44/55/44 45/57/44
f 12/58/45 45/57/45 46/59/45
f 14/33/46 13/34/46 46/59/46
f 15/61/47 14/33/47 47/60/47
f 15/61/48 48/62/48 49/63/48
f 16/64/49 49/63/49 50/65/49
f 17/66/50 50/65/50 51/67/50
f 18/68/51 51/67/51 52/69/51
f 19/70/52 52/69/52 53/71/52
f 20/72/53 53/71/53 54/73/53
f 22/75/54 21/74/54 54/73/54
f 23/77/55 22/75/55 55/76/55
f 23/77/56 56/78/56 57/79/56
f 24/80/57 57/79/57 58/81/57
f 25/82/58 58/81/58 59/83/58
f 26/84/59 59/83/59 60/85/59
f 27/86/60 60/85/60 61/87/60
f 28/88/61 61/87/61 62/89/61
f 30/91/62 29/90/62 62/89/62
f 31/93/63 30/91/63 63/92/63
f 31/93/64 64/94/64 65/95/64
f 32/96/65 65/95/65 34/97/65
f 28/88/66 93/88/66 92/86/66
f 15/61/67 80/61/67 79/33/67
f 2/38/68 67/38/68 66/36/68
f 29/90/69 94/90/69 93/88/69
f 16/64/70 81/64/70 80/61/70
f 3/40/71 68/40/71 67/38/71
f 30/91/72 95/91/72 94/90/72
f 17/66/73 82/66/73 81/64/73
f 4/42/74 69/42/74 68/40/74
f 31/93/75 96/93/75 95/91/75
f 18/68/76 83/68/76 82/66/76
f 5/44/77 70/44/77 69/42/77
f 32/96/78 97/96/78 96/93/78
f 19/70/79 84/70/79 83/68/79
f 6/45/80 71/45/80 70/44/80
f 1/36/81 66/36/81 97/96/81
f 20/72/82 85/72/82 84/70/82
f 7/47/83 72/47/83 71/45/83
f 21/74/84 86/74/84 85/72/84
f 8/50/85 73/50/85 72/47/85
f 22/75/86 87/75/86 86/74/86
f 9/52/87 74/52/87 73/50/87
f 23/77/88 88/77/88 87/75/88
f 10/54/89 75/54/89 74/52/89
f 24/80/90 89/80/90 88/77/90
f 11/56/91 76/56/91 75/54/91
f 25/82/92 90/82/92 89/80/92
f 12/58/93 77/58/93 76/56/93
f 26/84/94 91/84/94 90/82/94
f 13/34/95 78/34/95 77/58/95
f 27/86/96 92/86/96 91/84/96
